# xmcd
#
# Track frame offsets:
# 150
# 17276
# 29784
# 50250
#
# Disc length: 864 seconds
#
# Revision: 1
# Processed by: cddbd v1.5.2PL0 Copyright (c) Steve Scherf et al.
# Submitted via: CedeCatalogueitor 2.6.0.6 http://personales.ya.com/cdcatalogueitor
#
DISCID=27035e04
DTITLE=The Unfinished Sympathy - This Living Kills [CD Single)
DYEAR=1900
DGENRE=
TTITLE0=This Living Kills
TTITLE1=Teenage Kicks
TTITLE2=Peñaflor
TTITLE3=Prayers For Time (live)
EXTD=
EXTT0=
EXTT1=
EXTT2=
EXTT3=
PLAYORDER=
